<?xml version="1.0" standalone="no"?>
<!DOCTYPE svg PUBLIC "-//W3C//DTD SVG 20010904//EN"
 "http://www.w3.org/TR/2001/REC-SVG-20010904/DTD/svg10.dtd">
<svg version="1.0" xmlns="http://www.w3.org/2000/svg"
 width="512.000000pt" height="512.000000pt" viewBox="0 0 512.000000 512.000000"
 preserveAspectRatio="xMidYMid meet">

<g transform="translate(0.000000,512.000000) scale(0.100000,-0.100000)"
fill="currentColor" stroke="none">
<path d="M3982 4789 c-182 -30 -364 -154 -471 -318 -64 -99 -86 -185 -86 -331
0 -188 14 -223 255 -640 l199 -345 -907 -5 c-984 -5 -918 -2 -1030 -59 -61
-31 -136 -112 -171 -183 -106 -218 -20 -468 197 -575 l76 -38 315 -6 c360 -7
404 -15 566 -92 228 -111 399 -320 466 -572 30 -114 31 -297 1 -417 -65 -264
-237 -472 -484 -587 -167 -79 -119 -75 -922 -78 l-718 -4 20 33 c83 136 331
574 352 623 59 131 77 304 45 430 -74 290 -354 505 -658 505 -113 0 -175 -14
-272 -60 -334 -161 -481 -571 -319 -892 33 -66 429 -753 456 -791 27 -38 88
-67 143 -67 44 0 116 28 130 50 4 7 254 10 739 10 600 0 749 3 817 15 668 117
1046 840 759 1452 -121 258 -348 460 -614 547 -128 42 -182 48 -491 55 -333 7
-337 8 -411 79 -111 108 -103 293 18 396 84 72 36 70 1139 61 967 -7 988 -7
1030 13 24 10 54 30 66 43 25 28 456 772 483 833 58 135 65 327 17 465 -37
106 -82 175 -172 267 -153 154 -350 218 -563 183z m203 -164 c250 -53 421
-278 402 -530 -3 -39 -13 -95 -24 -125 -18 -54 -447 -808 -467 -822 -6 -4 -14
-8 -17 -8 -11 0 -449 766 -471 823 -25 66 -34 194 -19 270 41 192 197 349 391
391 85 19 120 19 205 1z m-3026 -2670 c189 -50 335 -204 372 -393 15 -78 7
-188 -19 -262 -11 -30 -118 -226 -239 -435 -162 -281 -224 -380 -237 -380 -14
0 -70 88 -213 335 -229 395 -258 451 -278 527 -68 259 97 535 362 608 65 18
186 18 252 0z"/>
<path d="M3995 4466 c-104 -33 -173 -91 -222 -186 -25 -49 -28 -65 -28 -150 0
-89 2 -99 34 -158 41 -75 94 -125 170 -160 46 -22 71 -26 136 -26 65 0 90 4
136 26 79 36 133 89 171 166 29 59 33 76 33 152 0 97 -25 165 -86 234 -84 96
-228 139 -344 102z m173 -167 c75 -37 115 -124 98 -214 -13 -69 -107 -145
-181 -145 -74 0 -168 76 -181 145 -17 90 23 177 98 214 55 27 110 27 166 0z"/>
<path d="M935 1797 c-95 -32 -167 -93 -211 -179 -39 -76 -45 -190 -13 -273 28
-75 102 -155 178 -192 49 -24 68 -28 146 -28 78 0 97 4 147 28 69 34 131 94
166 162 24 44 27 61 27 150 0 90 -3 105 -28 153 -62 118 -167 185 -297 189
-42 2 -92 -3 -115 -10z m202 -172 c94 -61 110 -202 34 -289 -64 -73 -207 -72
-273 1 -68 75 -61 201 16 272 51 48 161 56 223 16z"/>
</g>
</svg>
